<svg width="34" height="34" viewBox="0 0 34 34" fill="none" xmlns="http://www.w3.org/2000/svg">
<path fill-rule="evenodd" clip-rule="evenodd" d="M4 17V23H5.23766H6.47531L6.51783 20.5488L6.56034 18.0976L9.93534 18.058L13.3103 18.0187V16.9239V15.8293H9.89655H6.48276V14.5122V13.1951H9.89655H13.3103V12.0976V11H8.65517H4V17ZM14.3966 17V23H15.6379H16.8793V17V11H15.6379H14.3966V17ZM17.9914 11.1444C18.042 11.2858 18.2816 11.5772 21.3013 15.1684C22.1123 16.1329 22.7757 16.9561 22.7756 16.9977C22.7752 17.0547 19.8582 20.4516 17.7781 22.8171C17.6511 22.9614 17.9446 23 19.1659 23H20.7146L21.8616 21.6689C22.4925 20.9369 23.2715 20.0313 23.5928 19.6567C24.381 18.738 24.3215 18.7085 26.2621 20.9776L27.9741 22.9794L29.4871 22.9898C30.3193 22.9953 31 22.964 31 22.9201C31 22.876 29.9143 21.589 28.5872 20.0599C27.2603 18.5307 26.1383 17.1902 26.0938 17.0811C26.048 16.9682 27.04 15.6718 28.3902 14.0802C29.6975 12.5389 30.7905 11.2153 30.8189 11.1389C30.8492 11.0577 30.2648 11 29.4106 11H27.9506L26.4882 12.7034C24.4049 15.1303 24.3606 15.1785 24.291 15.0976C24.2564 15.0573 23.4769 14.119 22.5588 13.0122L20.8894 11H19.4145C18.5127 11 17.9598 11.056 17.9914 11.1444Z" fill="#EBEBFF"/>
</svg>
