<svg width="112" height="38" viewBox="0 0 112 38" fill="none" xmlns="http://www.w3.org/2000/svg">
<g clip-path="url(#clip0_835_4719)">
<path d="M39.1819 6.5529C40.0775 9.01666 40.5425 11.6087 40.577 14.2179C40.5856 16.81 40.1464 19.385 39.2853 21.8316C38.4241 24.2611 37.141 26.5196 35.5048 28.5128C33.8687 30.4975 31.9053 32.1828 29.6921 33.4917C25.2831 36.1265 19.9613 37.1274 14.9064 36.3318C10.1615 35.579 5.79548 33.312 2.46286 29.873C5.69214 28.6754 8.80086 27.1783 11.746 25.3989C14.9925 23.4313 18.0151 21.1301 20.7621 18.5209C23.5005 15.9203 25.9548 13.0374 28.0732 9.9149C30.183 6.80955 31.9483 3.48177 33.3348 0C31.7244 3.37055 29.8127 6.59568 27.5823 9.56416L25.8515 11.7542L24.0258 13.8586L22.0969 15.869L20.0646 17.7767C17.3003 20.249 14.2949 22.439 11.0915 24.3125C7.88805 26.1774 4.50377 27.7172 0.990312 28.9063L0 29.24L0.680301 30.027C2.46286 32.0801 4.59849 33.8082 6.98385 35.1256C11.7976 37.769 17.4037 38.6245 22.7944 37.5295C25.4639 36.982 28.0129 35.9725 30.3208 34.5439C32.62 33.1153 34.6523 31.2931 36.3143 29.163C37.9677 27.0414 39.225 24.6376 40.0258 22.0797C41.6362 16.9811 41.3348 11.3521 39.1819 6.5529Z" fill="#3CA842"/>
<path fill-rule="evenodd" clip-rule="evenodd" d="M16.2239 24.2954V34.8433C19.0657 35.1 21.9333 34.8177 24.6631 34.0135V16.9041C22.1055 19.6416 19.2724 22.1225 16.2239 24.2954ZM26.8246 14.4831V33.2778C30.0711 31.9519 32.9559 29.8902 35.2638 27.2639V0.829834C33.1195 5.74879 30.2778 10.3512 26.8246 14.4831ZM14.0711 34.5525V25.7668C11.4102 27.4949 7.85364 29.4111 4.86548 30.6002C7.31973 32.294 10.4198 33.8681 14.0711 34.5525Z" fill="#89C62A"/>
<path d="M48.5511 11.4119H52.3316V24.569H60.5124V27.6316H48.5511V11.4119Z" fill="#0C1B1D"/>
<path d="M65.5759 11.4119H69.3563V27.6316H65.5759V11.4119Z" fill="#0C1B1D"/>
<path d="M89.7998 27.6316L89.7739 17.9049L84.9688 25.9206H83.2723L78.493 18.1102V27.6316H74.9451V11.4119H78.071L84.1851 21.4893L90.2045 11.4119H93.3046L93.3477 27.6316H89.7998Z" fill="#0C1B1D"/>
<path d="M110.993 24.6118V27.623H98.351V11.4119H110.691V14.4231H102.106V17.9477H109.684V20.8648H102.106V24.6203L110.993 24.6118Z" fill="#0C1B1D"/>
<path d="M49.1368 31.8064V33.7997H51.7805V34.2616H49.1368V36.4174H48.5942V31.3359H52.0991V31.7979H49.1368" fill="#3CA842"/>
<path d="M56.1378 31.3445H56.6808V36.426H56.1378V31.3445Z" fill="#3CA842"/>
<path d="M65.5415 31.3445V36.426H65.0937L61.8041 32.3026V36.426H61.2616V31.3445H61.7094L64.9989 35.4679V31.3445H65.5415Z" fill="#3CA842"/>
<path d="M73.128 34.6295L71.9052 31.9005L70.6824 34.6295H73.128ZM73.3261 35.0658H70.4757L69.8643 36.426H69.3046L71.6383 31.3445H72.1636L74.4972 36.426H73.9289L73.3261 35.0658Z" fill="#3CA842"/>
<path d="M82.5576 31.3445V36.426H82.1098L78.8202 32.3026V36.426H78.2777V31.3445H78.7255L82.0151 35.4679V31.3445H82.5576Z" fill="#3CA842"/>
<path d="M87.9914 36.1266C87.5953 35.9127 87.2594 35.5876 87.0355 35.2027C86.5705 34.3814 86.5705 33.3805 87.0355 32.5593C87.2594 32.1658 87.5953 31.8492 88 31.6354C88.422 31.4044 88.8956 31.2932 89.3778 31.3017C89.7395 31.3017 90.0926 31.3616 90.4284 31.4899C90.7384 31.6097 91.0226 31.7979 91.2465 32.0374L90.902 32.3882C90.5059 31.9861 89.9548 31.7722 89.3864 31.7893C88.9989 31.7808 88.62 31.8749 88.2842 32.0631C87.9569 32.2427 87.69 32.4994 87.5092 32.8159C87.1389 33.4832 87.1389 34.2959 87.5092 34.9631C87.6986 35.2797 87.9656 35.5449 88.2842 35.716C88.62 35.9042 88.9989 35.9983 89.3864 35.9897C89.9548 36.0068 90.5059 35.7844 90.902 35.3823L91.2465 35.7245C91.014 35.9726 90.7384 36.1608 90.4198 36.2806C90.084 36.4089 89.7223 36.4773 89.3606 36.4688C88.8784 36.4688 88.4134 36.3576 87.9914 36.1266Z" fill="#3CA842"/>
<path d="M95.3112 31.3445H95.8542V36.426H95.3112V31.3445Z" fill="#3CA842"/>
<path d="M103.449 34.6295L102.226 31.9005L101.003 34.6295H103.449ZM103.647 35.0658H100.797L100.185 36.426H99.6254L101.959 31.3445H102.493L104.827 36.426H104.258L103.647 35.0658Z" fill="#3CA842"/>
<path d="M108.599 31.3445H109.141V35.9555H112V36.4174H108.599V31.3445Z" fill="#3CA842"/>
</g>
<defs>
<clipPath id="clip0_835_4719">
<rect width="112" height="38" fill="white"/>
</clipPath>
</defs>
</svg>
