<svg width="34" height="34" viewBox="0 0 34 34" fill="none" xmlns="http://www.w3.org/2000/svg">
<path d="M16.9063 4C10.3059 4 10.718 6.87732 10.718 6.87732L10.7254 9.8582H17.024V10.7532H8.2236C8.2236 10.7532 4 10.2717 4 16.9664C4 23.6612 7.68646 23.4238 7.68646 23.4238H9.88656V20.3171C9.88656 20.3171 9.76797 16.6114 13.5141 16.6114C17.2603 16.6114 19.7613 16.6114 19.7613 16.6114C19.7613 16.6114 23.2711 16.6684 23.2711 13.2015C23.2711 9.73459 23.2711 7.46906 23.2711 7.46906C23.2711 7.46906 23.804 4 16.9063 4ZM13.4332 6.00451C14.0599 6.00451 14.5664 6.51366 14.5664 7.1436C14.5664 7.77355 14.0599 8.2827 13.4332 8.2827C12.8065 8.2827 12.3 7.77355 12.3 7.1436C12.3 6.51366 12.8065 6.00451 13.4332 6.00451Z" fill="url(#paint0_linear_775_1198)"/>
<path d="M17.0937 30C23.6942 30 23.282 27.1227 23.282 27.1227L23.2746 24.1418H16.976V23.2468H25.7764C25.7764 23.2468 30 23.7283 30 17.0336C30 10.3388 26.3136 10.5762 26.3136 10.5762H24.1135V13.6829C24.1135 13.6829 24.2321 17.3886 20.4859 17.3886C16.7397 17.3886 14.2388 17.3886 14.2388 17.3886C14.2388 17.3886 10.7289 17.3316 10.7289 20.7985C10.7289 24.2654 10.7289 26.5309 10.7289 26.5309C10.7289 26.5309 10.196 30 17.0937 30ZM20.5668 27.9955C19.9401 27.9955 19.4337 27.4863 19.4337 26.8564C19.4337 26.2265 19.9401 25.7173 20.5668 25.7173C21.1935 25.7173 21.7 26.2265 21.7 26.8564C21.7 27.4863 21.1935 27.9955 20.5668 27.9955Z" fill="url(#paint1_linear_775_1198)"/>
<defs>
<linearGradient id="paint0_linear_775_1198" x1="6.49865" y1="6.27263" x2="19.4222" y2="19.1719" gradientUnits="userSpaceOnUse">
<stop stop-color="#387EB8"/>
<stop offset="1" stop-color="#366994"/>
</linearGradient>
<linearGradient id="paint1_linear_775_1198" x1="14.4073" y1="14.5215" x2="28.2839" y2="27.7468" gradientUnits="userSpaceOnUse">
<stop stop-color="#FFE052"/>
<stop offset="1" stop-color="#FFC331"/>
</linearGradient>
</defs>
</svg>
