<svg width="34" height="34" viewBox="0 0 34 34" fill="none" xmlns="http://www.w3.org/2000/svg">
<g clip-path="url(#clip0_775_1159)">
<path d="M12.1141 13.4406C13.2674 16.7469 13.7043 22.645 17.0766 22.645C17.3334 22.645 17.5928 22.6214 17.8532 22.575C14.7876 21.9049 14.4243 16.071 12.5536 13.0498C12.4069 13.1748 12.2613 13.305 12.1141 13.4406Z" fill="url(#paint0_linear_775_1159)"/>
<path d="M12.5536 13.0498C14.4243 16.071 14.7876 21.9049 17.8532 22.575C18.0941 22.5335 18.3354 22.4708 18.5773 22.3917C15.8256 21.1276 15.065 15.4626 12.9406 12.7353C12.812 12.8356 12.6828 12.9408 12.5536 13.0498Z" fill="url(#paint1_linear_775_1159)"/>
<path d="M15.249 11.2531C14.9927 11.2531 14.7328 11.2767 14.4719 11.3231C13.7895 11.4437 13.0963 11.7192 12.3975 12.136C12.5884 12.3126 12.77 12.5147 12.9409 12.7352C13.6516 12.1823 14.3576 11.7737 15.0611 11.5281C15.3251 11.4364 15.5881 11.3675 15.8521 11.3221C15.6617 11.2767 15.461 11.2531 15.249 11.2531Z" fill="#14559A"/>
<path d="M20.7253 21.2265C21.0068 21.0167 21.2889 20.7846 21.5714 20.5313C20.3996 17.2404 19.9802 11.258 16.5842 11.258C16.3413 11.258 16.0963 11.2792 15.8519 11.3216C18.9453 12.0429 19.3415 18.3525 20.7253 21.2265Z" fill="url(#paint2_linear_775_1159)"/>
<path d="M15.852 11.3219C15.6616 11.2765 15.4609 11.2529 15.2488 11.2529L16.5843 11.2575C16.3414 11.2575 16.0964 11.2787 15.852 11.3217" fill="#3092C4"/>
<path d="M20.666 21.9256C20.5333 21.8069 20.4072 21.6767 20.2832 21.5377C19.7119 21.9169 19.1428 22.2045 18.5772 22.3917C18.7784 22.4838 18.9894 22.5524 19.2133 22.5948C19.3867 22.628 19.5663 22.645 19.7552 22.645C20.3897 22.645 20.8914 22.5745 21.3186 22.3825C21.0834 22.2633 20.8678 22.1089 20.666 21.9256Z" fill="#1969BC"/>
<path d="M15.0609 11.5287C17.8316 12.8872 18.0725 19.0396 20.2833 21.5377C20.4315 21.4398 20.5782 21.3361 20.7248 21.2265C19.341 18.3525 18.9453 12.0424 15.8524 11.3217C15.5884 11.368 15.3249 11.4365 15.0609 11.5287Z" fill="url(#paint3_linear_775_1159)"/>
<path d="M12.9407 12.7353C15.065 15.4626 15.8256 21.1276 18.5773 22.3917C19.1429 22.2045 19.7121 21.9169 20.2833 21.5377C18.0725 19.0396 17.8316 12.8873 15.0609 11.5287C14.3574 11.7737 13.6514 12.1824 12.9407 12.7353Z" fill="url(#paint4_linear_775_1159)"/>
<path d="M10.755 13.361C10.422 14.0669 10.0818 14.9946 9.67065 16.2056C10.4884 15.1253 11.3036 14.1947 12.1141 13.4406C12.0024 13.1188 11.8825 12.8221 11.7533 12.5577C11.4219 12.7956 11.0879 13.0634 10.755 13.361Z" fill="url(#paint5_linear_775_1159)"/>
<path d="M12.0486 12.3542C11.9509 12.4198 11.8526 12.4869 11.7538 12.5578C11.8829 12.8222 12.0023 13.1189 12.114 13.4407C12.2612 13.3056 12.4073 13.1749 12.5535 13.0499C12.3965 12.7971 12.2298 12.5636 12.0486 12.3542Z" fill="#2B74B1"/>
<path d="M12.3974 12.136C12.2811 12.205 12.1654 12.2779 12.0485 12.3541C12.2297 12.5635 12.3964 12.797 12.5539 13.0503C12.6831 12.9408 12.8122 12.8351 12.9409 12.7352C12.77 12.5148 12.5884 12.3126 12.3974 12.136Z" fill="#125A9E"/>
<path d="M31.2962 11.0013C29.7292 16.6668 26.4562 21.2174 23.7122 22.3646H23.707C23.6571 22.3859 23.6077 22.4052 23.5588 22.424C23.5521 22.4278 23.546 22.4283 23.5408 22.4306C23.5264 22.436 23.513 22.4402 23.4986 22.4456C23.4918 22.4494 23.4857 22.4507 23.4796 22.453C23.4564 22.4607 23.4338 22.4673 23.4111 22.4757C23.4013 22.4796 23.3921 22.482 23.3828 22.485C23.3725 22.4888 23.3606 22.4924 23.3488 22.4954C23.3385 22.4993 23.3278 22.502 23.3159 22.5062C23.3061 22.5101 23.2958 22.5117 23.2866 22.5155C23.2665 22.521 23.248 22.5256 23.2279 22.5321C23.2197 22.5321 23.212 22.5363 23.2032 22.5383C23.1909 22.5421 23.1769 22.5449 23.1636 22.5484C23.1543 22.5522 23.1466 22.5534 23.1368 22.5553C23.1229 22.5592 23.1074 22.5627 23.0936 22.5658C23.075 22.5696 23.0586 22.5731 23.0411 22.5766C23.1651 22.6195 23.2943 22.6412 23.4337 22.6412C26.0357 22.6412 28.6592 18.2697 33 11H31.2956L31.2962 11.0013Z" fill="url(#paint6_linear_775_1159)"/>
<path d="M9.10563 11.483C9.10726 11.483 9.1093 11.4792 9.11032 11.4792C9.11236 11.4792 9.11552 11.4792 9.11654 11.4754H9.1198C9.13421 11.4708 9.14759 11.4653 9.162 11.4603C9.16567 11.4603 9.1676 11.4603 9.17025 11.4565C9.17392 11.4565 9.17749 11.4527 9.18108 11.4522C9.19652 11.4476 9.21196 11.4421 9.22637 11.4371H9.22882C9.26332 11.4275 9.2952 11.4155 9.32865 11.4043C9.33334 11.4043 9.33793 11.4005 9.34356 11.4005C9.35747 11.3963 9.37189 11.3916 9.38627 11.3885C9.393 11.3847 9.39965 11.3847 9.40582 11.3827C9.42073 11.3785 9.43518 11.3738 9.44906 11.3707C9.45527 11.3707 9.46091 11.3669 9.46552 11.3665C9.51338 11.3542 9.56072 11.3426 9.60859 11.3318C9.61531 11.3318 9.62094 11.328 9.62814 11.3276C9.64201 11.3238 9.65491 11.3218 9.66982 11.3199C9.67604 11.316 9.68321 11.316 9.69042 11.314C9.70429 11.3102 9.71766 11.3098 9.73261 11.3067H9.7424C9.77122 11.3012 9.80056 11.2966 9.82937 11.2916H9.84687C9.86074 11.2878 9.8731 11.2874 9.88701 11.285C9.89466 11.285 9.90245 11.2812 9.90965 11.2812C9.9225 11.2812 9.93538 11.2774 9.94823 11.2757C9.95496 11.2757 9.9616 11.2757 9.96935 11.2719C9.99969 11.2681 10.0311 11.2666 10.063 11.2642C9.97295 11.2561 9.88031 11.2507 9.78614 11.2507C6.85588 11.2507 2.81867 16.3478 1 22.9488H1.35046C1.9325 21.9757 2.45535 21.0552 2.93344 20.1911C4.20713 15.5156 6.80133 12.327 9.10581 11.4823" fill="url(#paint7_linear_775_1159)"/>
<path d="M10.755 13.361C11.088 13.0634 11.422 12.7956 11.7534 12.5577C11.6777 12.4024 11.5995 12.2586 11.5156 12.1269C11.2475 12.4318 11.0026 12.8342 10.755 13.361Z" fill="#0D82CA"/>
<path d="M10.9957 11.5216C11.1872 11.6722 11.3585 11.8792 11.5155 12.1272C11.5649 12.0702 11.6148 12.0176 11.6668 11.9684C11.4491 11.7778 11.2139 11.6215 10.9587 11.5038C10.969 11.5092 10.9793 11.5135 10.99 11.5177C10.99 11.5177 10.994 11.5215 10.9958 11.5215" fill="#0D82CA"/>
<path d="M2.93329 20.1917C5.60521 15.3646 6.87118 12.3097 9.10567 11.4828C6.8017 12.3281 4.20698 15.5166 2.93329 20.1917Z" fill="url(#paint8_linear_775_1159)"/>
<path d="M11.6666 11.9683C11.6147 12.018 11.5653 12.0701 11.5153 12.127C11.5992 12.2587 11.6774 12.402 11.7536 12.5579C11.8524 12.487 11.9507 12.4199 12.0485 12.3543C11.9276 12.2144 11.7999 12.0846 11.6666 11.9683Z" fill="#127BCA"/>
<path d="M4.14629 22.9277C4.12983 22.9315 4.11336 22.9315 4.09792 22.9332H4.08865C4.07474 22.9332 4.06033 22.937 4.04748 22.937H4.04078C4.00735 22.9408 3.97439 22.9408 3.94248 22.9432H3.93219C6.63653 22.8722 7.87265 21.6029 8.48608 19.7618C8.95232 18.3661 9.33521 17.1903 9.67075 16.2037C8.53806 17.6984 7.40023 19.4801 6.25622 21.476C5.70455 22.438 4.86571 22.8399 4.14627 22.9258" fill="url(#paint9_linear_775_1159)"/>
<path d="M4.14624 22.9267C4.86568 22.8408 5.70452 22.4394 6.25619 21.4769C7.40019 19.4815 8.53854 17.6993 9.67019 16.2046C10.0819 14.9932 10.4215 14.0659 10.755 13.36C8.49943 15.3729 6.23509 18.7197 4.14624 22.9258" fill="url(#paint10_linear_775_1159)"/>
<path d="M2.9332 20.1918C2.45513 21.0559 1.93228 21.9764 1.35022 22.9495H2.36971C2.50454 21.9831 2.69598 21.0616 2.9332 20.1922" fill="#05A1E6"/>
<path d="M9.96922 11.2744C9.96096 11.2744 9.9548 11.2782 9.9476 11.2782C9.93525 11.282 9.92236 11.282 9.90952 11.2833C9.90187 11.2833 9.89461 11.2833 9.88688 11.2871C9.87296 11.2909 9.86012 11.2913 9.84673 11.2937C9.84051 11.2937 9.83439 11.2937 9.82924 11.2975C9.79988 11.3021 9.77108 11.3072 9.74226 11.3118H9.73247C9.71757 11.3156 9.70415 11.3176 9.69028 11.3195C9.68304 11.3234 9.67587 11.3234 9.66916 11.3249C9.65528 11.3287 9.64137 11.3303 9.62799 11.3326C9.62076 11.3365 9.61515 11.3365 9.60843 11.3368C9.56058 11.3477 9.51323 11.3592 9.46536 11.3716C9.46027 11.3716 9.45508 11.3754 9.4489 11.3762C9.4345 11.38 9.42058 11.3839 9.40568 11.3881C9.39946 11.392 9.39229 11.392 9.38611 11.3935C9.37171 11.3973 9.35729 11.4012 9.3434 11.4055C9.33779 11.4055 9.33311 11.4093 9.32797 11.4093C9.29503 11.4208 9.26261 11.4324 9.22864 11.4421C9.21424 11.4463 9.19879 11.4517 9.18336 11.4567C9.17714 11.4606 9.1715 11.4614 9.16434 11.4641C9.14992 11.4683 9.13552 11.4738 9.12213 11.4788C9.11704 11.4826 9.11185 11.483 9.10826 11.485C6.87377 12.3119 5.6078 15.3668 2.93589 20.1939C2.69865 21.0633 2.50669 21.9847 2.37238 22.9511H2.51544C2.91839 22.9511 3.03212 22.9473 3.4958 22.9473H3.51947H3.58843H3.6121H3.61881H3.64248H3.65586H3.66513H3.68365H3.74129H3.79893H3.8473H3.86015H3.94506C3.97697 22.9434 4.0099 22.9434 4.04335 22.9411H4.04953C4.06345 22.9411 4.07732 22.9372 4.0907 22.9372H4.10046C4.11536 22.9372 4.13236 22.9334 4.14883 22.9318C6.23768 18.7257 8.50202 15.3789 10.7576 13.3661C11.0056 12.8392 11.2501 12.4369 11.5177 12.1324C11.3613 11.8845 11.1899 11.677 10.9985 11.5264C10.9985 11.5264 10.9933 11.5264 10.9928 11.5226C10.982 11.5184 10.9718 11.5134 10.9609 11.5083C10.9501 11.5029 10.9409 11.4987 10.9296 11.4933C10.9198 11.4895 10.9085 11.4844 10.8987 11.4794C10.8853 11.4756 10.8745 11.4701 10.8627 11.4651C10.8529 11.4613 10.8441 11.4574 10.8343 11.4535C10.8142 11.4462 10.7942 11.4385 10.7752 11.4304C10.7664 11.4266 10.7582 11.4245 10.7499 11.4215C10.736 11.4168 10.7201 11.4107 10.7057 11.4049C10.6984 11.4011 10.6902 11.4003 10.682 11.3975C10.6609 11.3909 10.6403 11.384 10.6208 11.3778H10.6157C10.592 11.3705 10.5688 11.3651 10.5446 11.3589C10.539 11.3551 10.5343 11.3551 10.5287 11.3543C10.5076 11.3489 10.4891 11.3435 10.469 11.3385C10.4639 11.3385 10.4592 11.3347 10.4551 11.3347C10.4068 11.3227 10.3568 11.3131 10.3064 11.3042C10.3012 11.3042 10.2961 11.3004 10.291 11.3004C10.2694 11.2966 10.2483 11.293 10.2266 11.2907C10.2214 11.2869 10.2184 11.2869 10.2138 11.2869C10.1881 11.2831 10.1628 11.2803 10.1376 11.2776H10.1243C10.1037 11.2738 10.0846 11.2734 10.0656 11.2714C10.0331 11.2752 10.0023 11.2769 9.97192 11.2795" fill="url(#paint11_linear_775_1159)"/>
<path d="M25.1753 14.1378C24.6612 15.6817 24.2449 16.9553 23.8826 18.0032C25.2931 16.1834 26.6826 13.8941 28.0057 11.2522C26.4624 11.7067 25.639 12.7469 25.1753 14.1378Z" fill="url(#paint12_linear_775_1159)"/>
<path d="M23.9273 22.2681C23.8553 22.3025 23.7832 22.3352 23.7122 22.3646C26.4562 21.2173 29.7292 16.6668 31.2962 11.0013H30.9787C27.3784 17.0306 26.2205 21.0668 23.9273 22.2681Z" fill="url(#paint13_linear_775_1159)"/>
<path d="M22.1355 21.7616C22.7325 21.0785 23.2188 19.9172 23.8827 18.0033C23.1169 18.9894 22.346 19.8371 21.5746 20.5285C21.5746 20.5323 21.5746 20.5323 21.5705 20.5347C21.7388 21.0075 21.9235 21.4248 22.134 21.7615" fill="#079AE1"/>
<path d="M22.1355 21.7616C21.9322 21.9942 21.7172 22.1712 21.4778 22.3025C21.4253 22.331 21.3724 22.3579 21.3183 22.3825C21.571 22.5104 21.8468 22.5958 22.1556 22.63C22.2008 22.6342 22.2456 22.6381 22.2925 22.6412H22.3007C22.3217 22.6412 22.344 22.6412 22.3666 22.645H22.3757H22.4431H22.5157H22.5383H22.5898C22.5981 22.645 22.6067 22.645 22.6149 22.6412C22.631 22.6412 22.6478 22.6412 22.6643 22.6374H22.6701H22.6886C22.7055 22.6374 22.7241 22.6336 22.7422 22.6319H22.7462C22.7516 22.6319 22.7574 22.6281 22.7627 22.6281C22.7816 22.6243 22.8014 22.6227 22.8199 22.62H22.8367C22.8577 22.6162 22.8794 22.6138 22.901 22.61H22.9051H22.9113C22.9546 22.6022 22.9968 22.5945 23.0395 22.5845C22.6854 22.4629 22.389 22.1763 22.1337 21.7682" fill="#1969BC"/>
<path d="M17.0767 22.6451C17.3335 22.6451 17.5929 22.6215 17.8533 22.5746C18.0942 22.5336 18.3355 22.4709 18.5774 22.3918C18.7786 22.4839 18.9896 22.5524 19.2129 22.5949C19.3863 22.6281 19.5665 22.6451 19.7553 22.6451H17.0767Z" fill="#1E5CB3"/>
<path d="M19.7554 22.6451C20.3894 22.6451 20.8917 22.5746 21.3183 22.3826C21.571 22.5104 21.8468 22.5958 22.1556 22.6301C22.2009 22.6343 22.2457 22.6382 22.2925 22.6413H22.3008C22.3218 22.6413 22.344 22.6413 22.3666 22.6451H22.3761H22.4436H19.7536L19.7554 22.6451Z" fill="#1E5CB3"/>
<path d="M22.4451 22.6451H22.5182H22.5409H22.5918C22.6005 22.6451 22.6087 22.6451 22.6169 22.6412C22.633 22.6412 22.6499 22.6412 22.6669 22.6374H22.6723H22.6912C22.7081 22.6374 22.7266 22.6336 22.7442 22.6321H22.7487C22.7541 22.6321 22.7594 22.6282 22.7648 22.6282C22.7837 22.6244 22.8035 22.6229 22.8219 22.6201C22.8281 22.6201 22.833 22.6201 22.8396 22.6163C22.8606 22.6125 22.8823 22.6105 22.9039 22.6067H22.908H22.9142C22.9575 22.5989 22.9997 22.5912 23.0424 22.5812C23.1664 22.6241 23.2956 22.6458 23.435 22.6458L22.4459 22.6497L22.4451 22.6451Z" fill="#1D60B5"/>
<path d="M21.5722 20.5347V20.5309C21.2897 20.7842 21.0077 21.0163 20.7262 21.2261C20.579 21.3357 20.4323 21.4394 20.2841 21.5373C20.4081 21.6763 20.5342 21.8065 20.667 21.9252C20.8687 22.1085 21.0843 22.2629 21.3195 22.3821C21.3731 22.3574 21.4266 22.3304 21.4785 22.302C21.7183 22.1708 21.9335 21.9937 22.1368 21.7612C21.9263 21.4244 21.7415 21.0071 21.5732 20.5343" fill="#175FAB"/>
<path d="M29.9731 11.0013H28.6382H28.5054H28.3798H28.3749C28.2885 11.0051 28.2046 11.0079 28.1217 11.0129C28.0826 11.0916 28.0425 11.1702 28.0039 11.2493C26.6808 13.8912 25.2913 16.1805 23.8808 18.0004C23.2174 19.9142 22.7306 21.0755 22.1336 21.7587C22.3889 22.1669 22.6858 22.4539 23.0388 22.5755C23.0491 22.5717 23.0574 22.5717 23.0666 22.5697H23.0723C23.0785 22.5697 23.0852 22.5658 23.0919 22.5658C23.1063 22.562 23.1217 22.5596 23.1361 22.5554C23.1454 22.5516 23.1531 22.5512 23.1624 22.5484C23.1758 22.5446 23.1897 22.5419 23.202 22.5388C23.2103 22.535 23.2185 22.5337 23.2267 22.5322C23.2473 22.526 23.2658 22.5214 23.2854 22.5156C23.2947 22.5118 23.3044 22.5086 23.3147 22.5063C23.3261 22.5025 23.3374 22.4997 23.3477 22.4951C23.3595 22.4913 23.3713 22.4893 23.3816 22.4851C23.3909 22.4813 23.4007 22.4789 23.4094 22.4754C23.4326 22.4677 23.4552 22.4612 23.4784 22.4527C23.4846 22.4527 23.4907 22.4473 23.4974 22.4461C23.5113 22.4406 23.5257 22.4364 23.5397 22.4306C23.5447 22.4268 23.551 22.4264 23.5576 22.4244C23.606 22.4055 23.6559 22.3862 23.7058 22.3651H23.711C23.7821 22.3358 23.8541 22.3028 23.9256 22.2686C26.2193 21.0673 27.3772 17.031 30.9775 11.0018H29.972L29.9731 11.0013Z" fill="url(#paint14_linear_775_1159)"/>
<path d="M10.063 11.2663C10.0687 11.2663 10.0738 11.2663 10.0795 11.2701C10.0933 11.2701 10.1072 11.2701 10.1211 11.2743H10.1351C10.1603 11.2781 10.1855 11.2801 10.2112 11.2836C10.2159 11.2836 10.22 11.2836 10.2241 11.2874C10.2451 11.2912 10.2668 11.2944 10.2884 11.2974C10.2931 11.2974 10.2992 11.3013 10.3044 11.3013C10.3538 11.3105 10.4042 11.3202 10.4526 11.3321C10.4572 11.3321 10.4619 11.336 10.466 11.336C10.4865 11.3405 10.5051 11.3464 10.5256 11.3518C10.5319 11.3518 10.5364 11.3556 10.5421 11.3565C10.5663 11.3623 10.589 11.368 10.6126 11.3754C10.6136 11.3754 10.6151 11.3754 10.6178 11.3792C10.6379 11.3849 10.6585 11.3923 10.6796 11.3989C10.6878 11.4027 10.6955 11.4043 10.7032 11.4062C10.7177 11.4121 10.7336 11.4178 10.7475 11.4232C10.7558 11.4232 10.764 11.4286 10.7727 11.4313C10.7917 11.4395 10.8118 11.4468 10.8314 11.4545C10.8417 11.4583 10.8504 11.4626 10.8602 11.4661C10.8715 11.4715 10.8833 11.4765 10.8957 11.4804C10.906 11.4849 10.9173 11.49 10.927 11.4942C10.9379 11.4997 10.9481 11.5039 10.9585 11.5093C11.2137 11.627 11.4489 11.7838 11.6666 11.9739C11.7469 11.8948 11.8307 11.8239 11.9177 11.7602C11.4417 11.4437 10.9024 11.2632 10.2802 11.2632C10.2081 11.2632 10.1361 11.2671 10.063 11.2721" fill="#7DCBEC"/>
<path d="M11.6666 11.9683C11.7999 12.0845 11.9275 12.2144 12.0485 12.3543C12.1653 12.278 12.2811 12.2047 12.3974 12.1362C12.2451 11.9934 12.0845 11.865 11.9172 11.7545C11.8303 11.8178 11.7469 11.8892 11.6666 11.9683Z" fill="#5EC5ED"/>
<path d="M10.0629 11.2662C10.136 11.2604 10.208 11.258 10.28 11.258C10.9022 11.258 11.4416 11.4384 11.9176 11.7544C12.4198 11.3829 13.0271 11.2532 13.8706 11.2532H9.78601C9.88019 11.2532 9.9723 11.2585 10.0629 11.2662Z" fill="url(#paint15_linear_775_1159)"/>
<path d="M13.8705 11.2531C13.0271 11.2531 12.4198 11.3829 11.9175 11.7544C12.0843 11.8649 12.2448 11.9932 12.3972 12.136C13.0965 11.7192 13.7892 11.4432 14.4721 11.3226C14.7325 11.2768 14.9924 11.2531 15.2487 11.2531H13.8705Z" fill="url(#paint16_linear_775_1159)"/>
<path d="M23.8825 18.0042C24.2453 16.9553 24.6606 15.6822 25.1758 14.1378C25.64 12.7464 26.4618 11.7062 28.0051 11.2522C28.0459 11.1745 28.0844 11.0944 28.1241 11.0158C25.608 11.1572 24.4321 12.357 23.8403 14.1339C22.8054 17.2361 22.1786 19.247 21.575 20.5284C22.3459 19.8375 23.1168 18.9894 23.8825 18.0042Z" fill="url(#paint17_linear_775_1159)"/>
</g>
<defs>
<linearGradient id="paint0_linear_775_1159" x1="14.9835" y1="11.1772" x2="14.9835" y2="25.4875" gradientUnits="userSpaceOnUse">
<stop stop-color="#0994DC"/>
<stop offset="0.350006" stop-color="#66CEF5"/>
<stop offset="0.846161" stop-color="#127BCA"/>
<stop offset="1" stop-color="#127BCA"/>
</linearGradient>
<linearGradient id="paint1_linear_775_1159" x1="15.5655" y1="10.8149" x2="15.5655" y2="25.49" gradientUnits="userSpaceOnUse">
<stop stop-color="#0E76BC"/>
<stop offset="0.360001" stop-color="#36AEE8"/>
<stop offset="0.846161" stop-color="#00ADEF"/>
<stop offset="1" stop-color="#00ADEF"/>
</linearGradient>
<linearGradient id="paint2_linear_775_1159" x1="18.7116" y1="22.3152" x2="18.7116" y2="10.6385" gradientUnits="userSpaceOnUse">
<stop stop-color="#1C63B7"/>
<stop offset="0.5" stop-color="#33BDF2"/>
<stop offset="1" stop-color="#33BDF2" stop-opacity="0.419608"/>
</linearGradient>
<linearGradient id="paint3_linear_775_1159" x1="17.8929" y1="9.32799" x2="17.8929" y2="24.5645" gradientUnits="userSpaceOnUse">
<stop stop-color="#166AB8"/>
<stop offset="0.399994" stop-color="#36AEE8"/>
<stop offset="0.846161" stop-color="#0798DD"/>
<stop offset="1" stop-color="#0798DD"/>
</linearGradient>
<linearGradient id="paint4_linear_775_1159" x1="16.6119" y1="9.40807" x2="16.6119" y2="25.6101" gradientUnits="userSpaceOnUse">
<stop stop-color="#124379"/>
<stop offset="0.389999" stop-color="#1487CB"/>
<stop offset="0.780228" stop-color="#165197"/>
<stop offset="1" stop-color="#165197"/>
</linearGradient>
<linearGradient id="paint5_linear_775_1159" x1="9.67066" y1="14.3817" x2="12.1141" y2="14.3817" gradientUnits="userSpaceOnUse">
<stop stop-color="#33BDF2" stop-opacity="0.698039"/>
<stop offset="1" stop-color="#1DACD8"/>
</linearGradient>
<linearGradient id="paint6_linear_775_1159" x1="28.0215" y1="22.0226" x2="28.0215" y2="10.6479" gradientUnits="userSpaceOnUse">
<stop stop-color="#136AB4"/>
<stop offset="0.6" stop-color="#59CAF5" stop-opacity="0.54902"/>
<stop offset="1" stop-color="#59CAF5" stop-opacity="0.235294"/>
</linearGradient>
<linearGradient id="paint7_linear_775_1159" x1="0.999931" y1="17.0997" x2="10.0629" y2="17.0997" gradientUnits="userSpaceOnUse">
<stop stop-color="#05A1E6" stop-opacity="0.247059"/>
<stop offset="1" stop-color="#05A1E6"/>
</linearGradient>
<linearGradient id="paint8_linear_775_1159" x1="6.01937" y1="22.3091" x2="6.01937" y2="10.6623" gradientUnits="userSpaceOnUse">
<stop stop-color="#318ED5"/>
<stop offset="1" stop-color="#38A7E4"/>
</linearGradient>
<linearGradient id="paint9_linear_775_1159" x1="6.80139" y1="22.3501" x2="6.80139" y2="11.0288" gradientUnits="userSpaceOnUse">
<stop stop-color="#05A1E6"/>
<stop offset="1" stop-color="#05A1E6" stop-opacity="0.54902"/>
</linearGradient>
<linearGradient id="paint10_linear_775_1159" x1="7.45063" y1="22.9277" x2="7.45063" y2="13.361" gradientUnits="userSpaceOnUse">
<stop stop-color="#1959A6"/>
<stop offset="0.5" stop-color="#05A1E6"/>
<stop offset="0.917587" stop-color="#7EC5EA"/>
<stop offset="1" stop-color="#7EC5EA"/>
</linearGradient>
<linearGradient id="paint11_linear_775_1159" x1="7.84166" y1="22.3166" x2="4.76544" y2="12.2888" gradientUnits="userSpaceOnUse">
<stop stop-color="#165096"/>
<stop offset="1" stop-color="#0D82CA"/>
</linearGradient>
<linearGradient id="paint12_linear_775_1159" x1="25.9439" y1="16.4504" x2="25.9439" y2="11.0295" gradientUnits="userSpaceOnUse">
<stop stop-color="#05A1E6"/>
<stop offset="0.873627" stop-color="#0495D6"/>
<stop offset="1" stop-color="#0495D6"/>
</linearGradient>
<linearGradient id="paint13_linear_775_1159" x1="28.6618" y1="10.5284" x2="23.8265" y2="21.9797" gradientUnits="userSpaceOnUse">
<stop stop-color="#38A7E4" stop-opacity="0.329412"/>
<stop offset="0.961533" stop-color="#0E88D3"/>
<stop offset="1" stop-color="#0E88D3"/>
</linearGradient>
<linearGradient id="paint14_linear_775_1159" x1="26.557" y1="10.9671" x2="26.557" y2="22.7933" gradientUnits="userSpaceOnUse">
<stop stop-color="#168CD4"/>
<stop offset="0.5" stop-color="#1C87CC"/>
<stop offset="1" stop-color="#154B8D"/>
</linearGradient>
<linearGradient id="paint15_linear_775_1159" x1="10.4671" y1="10.724" x2="10.5151" y2="11.9645" gradientUnits="userSpaceOnUse">
<stop stop-color="#97D6EE"/>
<stop offset="0.703293" stop-color="#55C1EA"/>
<stop offset="1" stop-color="#55C1EA"/>
</linearGradient>
<linearGradient id="paint16_linear_775_1159" x1="12.1471" y1="12.0804" x2="12.365" y2="10.7618" gradientUnits="userSpaceOnUse">
<stop stop-color="#7ACCEC"/>
<stop offset="1" stop-color="#3FB7ED"/>
</linearGradient>
<linearGradient id="paint17_linear_775_1159" x1="24.8493" y1="11.6211" x2="24.8493" y2="23.1883" gradientUnits="userSpaceOnUse">
<stop stop-color="#1DA7E7"/>
<stop offset="1" stop-color="#37ABE7" stop-opacity="0"/>
</linearGradient>
<clipPath id="clip0_775_1159">
<rect width="32" height="11.9511" fill="white" transform="translate(1 11)"/>
</clipPath>
</defs>
</svg>
