<?xml version="1.0" encoding="UTF-8"?>
<svg xmlns="http://www.w3.org/2000/svg" id="svg2" viewBox="0 0 1504.74 578.57"> <defs> <style>.cls-1{fill:#3ca842;}.cls-2{fill:#89c62a;fill-rule:evenodd;}.cls-3{fill:#0c1b1d;}</style> </defs> <title>lime logotype color</title> <path id="path14" class="cls-1" d="M565.57,147.55a271.79,271.79,0,0,1,16.16,89.62,264.55,264.55,0,0,1-15,89,261.41,261.41,0,0,1-43.94,78.1,258.15,258.15,0,0,1-67.51,58.21C404.07,493.25,342.3,505,283.58,495.66a257.39,257.39,0,0,1-144.5-75.49,626.33,626.33,0,0,0,107.81-52.34,619.52,619.52,0,0,0,104.74-80.39A608,608,0,0,0,436.5,186.85,602,602,0,0,0,497.65,71c-18.74,39.39-40.85,77.07-66.81,111.84l-20.07,25.59-21.24,24.65-22.39,23.45-23.56,22.28a641.37,641.37,0,0,1-104.24,76.37A642.73,642.73,0,0,1,122.05,408.9l-11.47,3.91,8,9.19a271.17,271.17,0,0,0,73.2,59.61,266.66,266.66,0,0,0,340.64-69.69,263.45,263.45,0,0,0,43.12-82.84c18.62-59.59,15.06-125.41-9.92-181.53"/> <path id="path16" class="cls-2" d="M299,355V478.36a261.36,261.36,0,0,0,98-9.7v-200A663.46,663.46,0,0,1,299,355ZM422.08,240.26V459.92a262.88,262.88,0,0,0,98-70.3v-309a661.9,661.9,0,0,1-98,159.58ZM273.94,474.85V372.15C243,392.32,201.72,414.71,167,428.67c28.54,19.78,64.53,38.17,106.9,46.18"/> <path id="path18" class="cls-3" d="M674.37,204.35h43.88V358.19h95v35.74H674.37V204.35"/> <path id="path20" class="cls-3" d="M865,204.35h43.87V393.93H865V204.35"/> <path id="path22" class="cls-3" d="M1153.43,393.93l-.28-113.74-55.79,93.7h-19.72l-55.53-91.27V393.93H980.94V204.35h36.26l71,117.81L1158,204.35h36l.55,189.58h-41.16"/> <path id="path24" class="cls-3" d="M1413.47,358.72v35.19h-146.8V204.35h143.27v35.19h-99.67v41.17h88v34.12h-88V358.7l103.2,0"/> <path id="path26" class="cls-1" d="M681.15,442.75v23.34h30.7v5.42h-30.7V496.7h-6.28V437.33h40.71v5.42H681.15"/> <path id="path28" class="cls-1" d="M762.48,437.33h6.28V496.7h-6.28V437.33"/> <path id="path30" class="cls-1" d="M871.64,437.33V496.7h-5.19l-38.16-48.18V496.7H822V437.33h5.17l38.25,48.17V437.33h6.2"/> <path id="path32" class="cls-1" d="M959.83,475.75l-14.25-31.89-14.24,31.89Zm2.29,5.08h-33l-7.13,15.87h-6.52l27.14-59.37h6.14l27.15,59.37h-6.63l-7.1-15.87"/> <path id="path34" class="cls-1" d="M1069.24,437.33V496.7h-5.18l-38.16-48.18V496.7h-6.27V437.33h5.17l38.25,48.17V437.33h6.19"/> <path id="path36" class="cls-1" d="M1132.38,493.31a28.57,28.57,0,0,1-11.11-10.81,31.76,31.76,0,0,1,0-30.93,28.51,28.51,0,0,1,11.15-10.8,32.47,32.47,0,0,1,16-3.9,33,33,0,0,1,12.22,2.2,25.37,25.37,0,0,1,9.5,6.39l-4,4.05a23.61,23.61,0,0,0-17.57-7,25.74,25.74,0,0,0-12.79,3.2,23.52,23.52,0,0,0-9,8.81,25.79,25.79,0,0,0,0,25.11,23.52,23.52,0,0,0,9,8.81,25.74,25.74,0,0,0,12.79,3.2,23.35,23.35,0,0,0,17.57-7.12l4,4a25.79,25.79,0,0,1-9.59,6.49,33,33,0,0,1-12.25,2.24,32.37,32.37,0,0,1-15.86-3.89"/> <path id="path38" class="cls-1" d="M1217.41,437.33h6.27V496.7h-6.27V437.33"/> <path id="path40" class="cls-1" d="M1311.88,475.75l-14.24-31.89-14.25,31.89Zm2.29,5.08h-33.05L1274,496.7h-6.54l27.15-59.37h6.18l27.14,59.37h-6.61l-7.15-15.87"/> <path id="path42" class="cls-1" d="M1371.68,437.33H1378v53.94h33.25v5.43h-39.52V437.33"/> </svg>