<svg width="34" height="34" viewBox="0 0 34 34" fill="none" xmlns="http://www.w3.org/2000/svg">
<path d="M29.6692 24.5C29.8732 24.1377 30 23.7295 30 23.3629V10.6372C30 10.2706 29.8734 9.86243 29.6693 9.50009L17 17.0001L29.6692 24.5Z" fill="#00599C"/>
<path d="M18.1258 31.725L28.8742 25.3622C29.1838 25.1789 29.4652 24.8624 29.6693 24.5L17 17L4.33081 24.5001C4.53482 24.8624 4.81631 25.179 5.12585 25.3622L15.8742 31.725C16.4934 32.0916 17.5067 32.0916 18.1258 31.725Z" fill="#004482"/>
<path d="M29.6693 9.49998C29.4652 9.13756 29.1837 8.82105 28.8742 8.63774L18.1258 2.27495C17.5067 1.90835 16.4933 1.90835 15.8742 2.27495L5.12582 8.63774C4.50658 9.00426 4 9.90405 4 10.6372V23.3628C4 23.7294 4.12669 24.1377 4.33078 24.5L17 17L29.6693 9.49998Z" fill="#659AD2"/>
<path d="M17 25.8864C12.2212 25.8864 8.33331 21.9 8.33331 17.0001C8.33331 12.1001 12.2212 8.11374 17 8.11374C20.0836 8.11374 22.9595 9.81521 24.5052 12.5541L20.7545 14.7795C19.9809 13.4086 18.5421 12.5569 17 12.5569C14.6105 12.5569 12.6666 14.5501 12.6666 17.0001C12.6666 19.45 14.6105 21.4432 17 21.4432C18.5423 21.4432 19.9811 20.5915 20.7548 19.2203L24.5055 21.4457C22.9598 24.1848 20.0838 25.8864 17 25.8864Z" fill="white"/>
<path d="M25.6667 16.5064H24.7036V15.519H23.7408V16.5064H22.7778V17.4937H23.7408V18.4811H24.7036V17.4937H25.6667V16.5064Z" fill="white"/>
<path d="M29.2778 16.5064H28.3148V15.519H27.3519V16.5064H26.3889V17.4937H27.3519V18.4811H28.3148V17.4937H29.2778V16.5064Z" fill="white"/>
</svg>
