<svg width="112" height="38" viewBox="0 0 112 38" fill="none" xmlns="http://www.w3.org/2000/svg">
<g clip-path="url(#clip0_818_3576)">
<path d="M39.1819 6.5529C40.0775 9.01666 40.5425 11.6087 40.577 14.2179C40.5856 16.81 40.1464 19.385 39.2853 21.8316C38.4241 24.2611 37.141 26.5196 35.5048 28.5128C33.8687 30.4975 31.9053 32.1828 29.6921 33.4917C25.2831 36.1265 19.9613 37.1274 14.9064 36.3318C10.1615 35.579 5.79548 33.312 2.46286 29.873C5.69214 28.6754 8.80086 27.1783 11.746 25.3989C14.9925 23.4313 18.0151 21.1301 20.7621 18.5209C23.5005 15.9203 25.9548 13.0374 28.0732 9.9149C30.183 6.80955 31.9483 3.48177 33.3348 0C31.7244 3.37055 29.8127 6.59568 27.5823 9.56416L25.8515 11.7542L24.0258 13.8586L22.0969 15.869L20.0646 17.7767C17.3003 20.249 14.2949 22.439 11.0915 24.3125C7.88805 26.1774 4.50377 27.7172 0.990312 28.9063L0 29.24L0.680301 30.027C2.46286 32.0801 4.59849 33.8082 6.98385 35.1256C11.7976 37.769 17.4037 38.6245 22.7944 37.5295C25.4639 36.982 28.0129 35.9725 30.3208 34.5439C32.62 33.1153 34.6523 31.2931 36.3143 29.163C37.9677 27.0414 39.225 24.6376 40.0258 22.0797C41.6362 16.9811 41.3348 11.3521 39.1819 6.5529Z" fill="#3CA842"/>
<path fill-rule="evenodd" clip-rule="evenodd" d="M16.2239 24.2954V34.8433C19.0657 35.1 21.9333 34.8177 24.6631 34.0135V16.9041C22.1055 19.6416 19.2724 22.1225 16.2239 24.2954ZM26.8246 14.4831V33.2778C30.0711 31.9519 32.9559 29.8902 35.2638 27.2639V0.829834C33.1195 5.74879 30.2778 10.3512 26.8246 14.4831ZM14.0711 34.5525V25.7668C11.4102 27.4949 7.85364 29.4111 4.86548 30.6002C7.31973 32.294 10.4198 33.8681 14.0711 34.5525Z" fill="#89C62A"/>
<path d="M48.551 11.412H52.3314V24.5691H60.5123V27.6317H48.551V11.412Z" fill="white"/>
<path d="M65.5759 11.412H69.3563V27.6317H65.5759V11.412Z" fill="white"/>
<path d="M89.7998 27.6317L89.7739 17.905L84.9688 25.9208H83.2723L78.493 18.1103V27.6317H74.9451V11.412H78.071L84.1851 21.4894L90.2045 11.412H93.3046L93.3477 27.6317H89.7998Z" fill="white"/>
<path d="M110.992 24.6119V27.6231H98.3508V11.412H110.691V14.4232H102.105V17.9478H109.683V20.8649H102.105V24.6204L110.992 24.6119Z" fill="white"/>
<path d="M49.1368 31.8064V33.7996H51.7805V34.2616H49.1368V36.4174H48.5942V31.3359H52.0991V31.7978H49.1368" fill="#3CA842"/>
<path d="M56.1377 31.3444H56.6807V36.4259H56.1377V31.3444Z" fill="#3CA842"/>
<path d="M65.5413 31.3444V36.4259H65.0936L61.804 32.3025V36.4259H61.2615V31.3444H61.7093L64.9988 35.4678V31.3444H65.5413Z" fill="#3CA842"/>
<path d="M73.1282 34.6294L71.9053 31.9005L70.6825 34.6294H73.1282ZM73.3262 35.0657H70.4758L69.8644 36.4259H69.3047L71.6384 31.3444H72.1637L74.4974 36.4259H73.929L73.3262 35.0657Z" fill="#3CA842"/>
<path d="M82.5577 31.3444V36.4259H82.1099L78.8203 32.3025V36.4259H78.2778V31.3444H78.7256L82.0152 35.4678V31.3444H82.5577Z" fill="#3CA842"/>
<path d="M87.9914 36.1265C87.5953 35.9126 87.2594 35.5876 87.0355 35.2026C86.5705 34.3814 86.5705 33.3805 87.0355 32.5592C87.2594 32.1657 87.5953 31.8492 88 31.6353C88.422 31.4043 88.8956 31.2931 89.3778 31.3017C89.7395 31.3017 90.0926 31.3616 90.4284 31.4899C90.7384 31.6096 91.0226 31.7978 91.2465 32.0374L90.902 32.3881C90.5059 31.986 89.9548 31.7722 89.3864 31.7893C88.9989 31.7807 88.62 31.8748 88.2842 32.063C87.9569 32.2427 87.69 32.4993 87.5092 32.8158C87.1389 33.4831 87.1389 34.2958 87.5092 34.9631C87.6986 35.2796 87.9656 35.5448 88.2842 35.7159C88.62 35.9041 88.9989 35.9982 89.3864 35.9896C89.9548 36.0068 90.5059 35.7843 90.902 35.3823L91.2465 35.7244C91.014 35.9725 90.7384 36.1607 90.4198 36.2805C90.084 36.4088 89.7223 36.4773 89.3606 36.4687C88.8784 36.4687 88.4134 36.3575 87.9914 36.1265Z" fill="#3CA842"/>
<path d="M95.311 31.3444H95.854V36.4259H95.311V31.3444Z" fill="#3CA842"/>
<path d="M103.449 34.6294L102.226 31.9005L101.003 34.6294H103.449ZM103.647 35.0657H100.797L100.185 36.4259H99.6255L101.959 31.3444H102.493L104.827 36.4259H104.258L103.647 35.0657Z" fill="#3CA842"/>
<path d="M108.599 31.3444H109.141V35.9554H112V36.4174H108.599V31.3444Z" fill="#3CA842"/>
</g>
<defs>
<clipPath id="clip0_818_3576">
<rect width="112" height="38" fill="white"/>
</clipPath>
</defs>
</svg>
